<svg width="65" height="64" viewBox="0 0 65 64" fill="none" xmlns="http://www.w3.org/2000/svg">
<g id="Deseos">
<path id="Vector (Stroke)" fill-rule="evenodd" clip-rule="evenodd" d="M7.11886 25.4071C9.46064 23.3806 12.1769 22.7095 15.1898 23.2435C18.471 23.8157 21.7745 24.4809 24.9984 25.7072L27.3565 26.4058H41.1317C45.7716 26.3932 50.4116 26.3932 55.0515 26.4059C57.624 26.4149 59.7232 27.9903 60.382 30.4305C61.2964 33.7978 58.7486 37.2162 55.2704 37.253C54.0191 37.2668 52.9966 36.4201 52.9473 35.1461C52.9241 34.5445 53.1173 33.9865 53.5091 33.5646C53.8992 33.1446 54.4495 32.8984 55.0754 32.8457C55.8041 32.7843 56.178 32.3127 56.1541 31.786C56.1293 31.2385 55.7256 30.8179 55.0362 30.8179H50.6446C49.448 36.4395 46.1491 40.3391 40.6835 42.4434L40.6751 42.4466L40.6666 42.4496C39.5578 42.8387 38.4187 43.1356 37.2611 43.3373L37.2538 43.3386C34.2639 43.8217 31.2172 43.8385 28.2222 43.3883L28.2127 43.3869C28.1725 43.3802 28.1159 43.3647 28.0919 43.3582L28.086 43.3566C28.0447 43.3454 27.9885 43.3299 27.9202 43.3108C27.7832 43.2725 27.5933 43.2186 27.3671 43.1539C26.9146 43.0243 26.3147 42.8504 25.6992 42.6684C25.0842 42.4866 24.4515 42.2961 23.9345 42.1337C23.438 41.9777 22.9982 41.8325 22.8079 41.7448L22.7998 41.741C21.0553 40.9053 19.4815 39.7523 18.1586 38.3411L18.1579 38.3403C14.8994 34.8519 10.8058 32.2511 6.26339 30.7834L6.25634 30.7812C5.89631 30.6599 5.56422 30.468 5.27936 30.2167C4.99454 29.9655 4.76256 29.6599 4.59726 29.3178L4.44604 29.0049L4.64229 28.718L5.1375 29.0568C4.64229 28.718 4.64227 28.7181 4.64229 28.718L4.66442 28.6857L4.72658 28.5954C4.78025 28.5174 4.85734 28.4058 4.95124 28.2707C5.13893 28.0007 5.39433 27.636 5.66448 27.2583C5.93409 26.8814 6.22092 26.4882 6.47088 26.1623C6.70386 25.8585 6.94832 25.5546 7.11886 25.4071ZM5.85133 29.0785C5.87783 29.0402 5.90634 28.9991 5.93662 28.9556C6.12238 28.6883 6.37447 28.3283 6.64045 27.9565C6.90698 27.5839 7.18495 27.203 7.42306 26.8926C7.67797 26.5602 7.84486 26.3657 7.90354 26.315C9.95642 24.5384 12.3027 23.9503 14.9811 24.4252L14.9828 24.4255C18.2593 24.9969 21.4751 25.6484 24.5924 26.8367L24.6138 26.8448L27.1825 27.6059H41.1325L41.1341 27.6058C45.772 27.5932 50.4099 27.5932 55.0477 27.6058M5.85133 29.0785C5.91708 29.1648 5.99133 29.2446 6.07312 29.3168C6.23742 29.4617 6.42877 29.5725 6.63614 29.6428C11.3709 31.1733 15.6379 33.8846 19.0346 37.521C20.2545 38.8221 21.7053 39.8853 23.3135 40.6565C23.4215 40.7054 23.7715 40.8246 24.2942 40.9888C24.8019 41.1484 25.4272 41.3367 26.0394 41.5177C26.6513 41.6986 27.2479 41.8715 27.6974 42.0002C27.9222 42.0646 28.1096 42.1177 28.2433 42.1551C28.3104 42.1738 28.3628 42.1883 28.3994 42.1982C28.4121 42.2017 28.4213 42.2041 28.4276 42.2057C31.2901 42.6331 34.2014 42.6158 37.0587 42.1545C38.1471 41.9647 39.2181 41.6856 40.2608 41.3203C45.4846 39.3064 48.5328 35.5862 49.5633 30.107L49.6553 29.6179H55.0362C56.3055 29.6179 57.2963 30.4833 57.3529 31.7317C57.4104 33.001 56.4441 33.9347 55.1761 34.0415C54.8037 34.0729 54.5469 34.2106 54.3883 34.3813C54.2315 34.5502 54.1344 34.7897 54.1464 35.0997C54.1677 35.6486 54.5772 36.0607 55.2573 36.053C57.9371 36.0247 59.9364 33.3667 59.2237 30.7442C58.7106 28.8438 57.098 27.6131 55.0477 27.6058" fill="black"/>
<path id="Vector (Stroke)_2" fill-rule="evenodd" clip-rule="evenodd" d="M25.1433 47.0163L26.9474 42.0815L28.0744 42.4936L26.2704 47.4284L25.1433 47.0163Z" fill="black"/>
<path id="Vector (Stroke)_3" fill-rule="evenodd" clip-rule="evenodd" d="M40.2772 42.1875L42.0406 47.0165L40.9134 47.4281L39.15 42.5991L40.2772 42.1875Z" fill="black"/>
<path id="Vector (Stroke)_4" fill-rule="evenodd" clip-rule="evenodd" d="M20.3701 46.6223H46.1844V47.2223C46.1844 48.0693 45.8479 48.8816 45.249 49.4805C44.6501 50.0794 43.8378 50.4159 42.9909 50.4159H20.3701V46.6223ZM21.5701 47.8223V49.2159H42.9909C43.5196 49.2159 44.0266 49.0058 44.4005 48.632C44.6291 48.4034 44.7964 48.125 44.892 47.8223H21.5701Z" fill="black"/>
<path id="Vector (Stroke)_5" fill-rule="evenodd" clip-rule="evenodd" d="M34.808 21.131C33.0841 21.1155 31.4063 21.6879 30.0513 22.7539C28.6964 23.8199 27.7453 25.3159 27.3547 26.9951L26.1859 26.7233C26.6383 24.7783 27.74 23.0456 29.3093 21.8108C30.8787 20.5761 32.822 19.913 34.8188 19.931C36.8156 19.949 38.7466 20.6469 40.2935 21.9097C41.8403 23.1725 42.9107 24.9248 43.328 26.8776L42.1545 27.1284C41.7943 25.4424 40.8701 23.9296 39.5346 22.8393C38.1991 21.749 36.532 21.1465 34.808 21.131Z" fill="black"/>
<path id="Vector (Stroke)_6" fill-rule="evenodd" clip-rule="evenodd" d="M34.7751 18.9208C34.0591 18.9145 33.3623 19.1518 32.7991 19.594C32.2359 20.0361 31.8399 20.6566 31.6761 21.3536L30.5079 21.0791C30.7341 20.1169 31.2807 19.2604 32.0581 18.6501C32.8355 18.0398 33.7974 17.7121 34.7858 17.7209C35.7741 17.7297 36.73 18.0744 37.4965 18.6984C38.2629 19.3224 38.7943 20.1886 39.0033 21.1546L37.8305 21.4083C37.6791 20.7085 37.2941 20.081 36.7388 19.629C36.1836 19.1769 35.4911 18.9272 34.7751 18.9208Z" fill="black"/>
<path id="Vector (Stroke)_7" fill-rule="evenodd" clip-rule="evenodd" d="M13.2657 26.6323C13.1882 26.543 12.9171 26.3754 12.3254 26.3954C11.1455 26.4352 10.2535 26.9848 9.64065 27.5494C9.54202 27.6403 9.45132 27.7309 9.36859 27.8191C10.3823 27.8431 11.1828 27.7537 11.793 27.6046C12.6229 27.4017 13.0435 27.1038 13.21 26.8905C13.2891 26.7891 13.2981 26.7254 13.2986 26.7048C13.2989 26.69 13.297 26.6683 13.2657 26.6323ZM8.73939 28.6411L8.7392 28.6415L8.73891 28.642L8.73939 28.6411ZM8.21403 28.3513L7.68845 28.0619L7.24634 28.8648L8.15902 28.9488C9.80459 29.1003 11.1 29.0092 12.0779 28.7702C13.0418 28.5347 13.7571 28.1396 14.1559 27.629C14.3594 27.3683 14.4904 27.0623 14.4983 26.7333C14.5062 26.3985 14.3847 26.0908 14.1718 25.8456C13.761 25.3724 13.0605 25.1699 12.2849 25.1961C10.7301 25.2485 9.5766 25.9767 8.82755 26.6669C8.45243 27.0125 8.17198 27.3542 7.98436 27.6109C7.89027 27.7396 7.81874 27.8479 7.76961 27.9261C7.74502 27.9652 7.72599 27.9969 7.71248 28.0199L7.69634 28.0478L7.69137 28.0567L7.68965 28.0597L7.68899 28.0609L7.6887 28.0614C7.68857 28.0617 7.68845 28.0619 8.21403 28.3513Z" fill="black"/>
<path id="Vector" d="M12.2318 36.3762C11.9797 36.3762 11.7331 36.451 11.5234 36.5911C11.3137 36.7312 11.1503 36.9303 11.0538 37.1633C10.9573 37.3963 10.932 37.6527 10.9812 37.9001C11.0304 38.1474 11.1518 38.3746 11.3301 38.5529C11.5085 38.7312 11.7357 38.8526 11.9831 38.9018C12.2304 38.951 12.4867 38.9258 12.7197 38.8293C12.9527 38.7328 13.1519 38.5693 13.292 38.3596C13.4321 38.15 13.5068 37.9035 13.5068 37.6513C13.5068 37.3131 13.3725 36.9888 13.1334 36.7496C12.8943 36.5105 12.57 36.3762 12.2318 36.3762Z" fill="black"/>
<path id="Vector_2" d="M49.9901 40.4673C49.7372 40.4673 49.4901 40.5423 49.2799 40.6829C49.0697 40.8234 48.906 41.0231 48.8094 41.2567C48.7128 41.4904 48.6876 41.7474 48.7371 41.9954C48.7866 42.2433 48.9086 42.471 49.0876 42.6496C49.2666 42.8282 49.4945 42.9497 49.7425 42.9987C49.9905 43.0477 50.2476 43.0219 50.481 42.9248C50.7144 42.8277 50.9138 42.6635 51.0539 42.453C51.194 42.2425 51.2684 41.9952 51.2678 41.7424C51.2671 41.404 51.1323 41.0796 50.8927 40.8406C50.6532 40.6015 50.3285 40.4673 49.9901 40.4673Z" fill="black"/>
<path id="Vector_3" d="M46.8594 17.2419C46.8594 16.9897 46.7847 16.7432 46.6446 16.5335C46.5045 16.3238 46.3053 16.1604 46.0723 16.0639C45.8393 15.9673 45.583 15.9421 45.3357 15.9913C45.0883 16.0405 44.8611 16.1619 44.6827 16.3402C44.5044 16.5186 44.383 16.7458 44.3338 16.9931C44.2846 17.2404 44.3099 17.4968 44.4064 17.7298C44.5029 17.9628 44.6663 18.1619 44.876 18.302C45.0857 18.4422 45.3323 18.5169 45.5844 18.5169C45.752 18.5173 45.918 18.4846 46.0728 18.4206C46.2277 18.3567 46.3683 18.2628 46.4868 18.1443C46.6053 18.0258 46.6992 17.8851 46.7631 17.7303C46.8271 17.5754 46.8598 17.4094 46.8594 17.2419Z" fill="black"/>
<path id="Vector_4" d="M22.9858 21.0754C22.9863 21.3275 23.0617 21.5737 23.2021 21.7831C23.3425 21.9924 23.5418 22.1554 23.7749 22.2515C24.0079 22.3476 24.2641 22.3724 24.5113 22.3229C24.7584 22.2734 24.9855 22.1518 25.1635 21.9733C25.3416 21.7949 25.4627 21.5677 25.5117 21.3204C25.5606 21.0732 25.5352 20.817 25.4387 20.5841C25.3421 20.3513 25.1787 20.1523 24.9691 20.0123C24.7594 19.8723 24.513 19.7976 24.2609 19.7976C23.9225 19.7983 23.5981 19.9333 23.3591 20.1728C23.12 20.4124 22.9858 20.737 22.9858 21.0754Z" fill="black"/>
<path id="Vector_5" d="M50.8068 23.593V24.8897H51.7048V23.6065C51.7097 23.394 51.7976 23.1918 51.9497 23.0433C52.1018 22.8947 52.3061 22.8116 52.5187 22.8116H53.8073V21.9164H52.5187C52.3056 21.9164 52.101 21.8329 51.9488 21.6838C51.7966 21.5346 51.709 21.3318 51.7048 21.1188V19.8247H50.8068V21.1188C50.8025 21.3318 50.7148 21.5346 50.5627 21.6838C50.4105 21.8329 50.206 21.9164 49.9929 21.9164H48.7043V22.8116H49.9929C50.2055 22.8116 50.4096 22.8947 50.5617 23.0433C50.7138 23.1918 50.8018 23.394 50.8068 23.6065" fill="black"/>
<path id="Vector_6" d="M16.0109 43.6413C15.7979 43.6371 15.595 43.5494 15.4459 43.3973C15.2968 43.2451 15.2133 43.0405 15.2133 42.8275V41.5388H14.3181V42.8275C14.3181 43.0405 14.2346 43.2451 14.0855 43.3973C13.9363 43.5494 13.7335 43.6371 13.5205 43.6413H12.2264V44.5365H13.5205C13.7335 44.5408 13.9363 44.6284 14.0855 44.7806C14.2346 44.9328 14.3181 45.1374 14.3181 45.3504V46.639H15.2133V45.3504C15.2133 45.1374 15.2968 44.9328 15.4459 44.7806C15.595 44.6284 15.7979 44.5408 16.0109 44.5365H17.3049V43.6413H16.0217H16.0109Z" fill="black"/>
<path id="Vector_7" d="M15.6854 16.0918C15.4724 16.0875 15.2694 15.9999 15.1203 15.8477C14.9712 15.6955 14.8878 15.491 14.8878 15.2779V13.9893H13.9925V15.2779C13.9925 15.491 13.909 15.6955 13.7599 15.8477C13.6107 15.9999 13.4079 16.0875 13.1949 16.0918H11.9008V16.987H13.2057C13.4188 16.9913 13.6216 17.0789 13.7707 17.2311C13.9198 17.3833 14.0034 17.5878 14.0033 17.8009V19.0895H14.8987V17.8009C14.8986 17.5878 14.982 17.3833 15.1311 17.2311C15.2803 17.0789 15.4832 16.9913 15.6962 16.987H16.9903V16.0918H15.6962" fill="black"/>
</g>
</svg>
